<svg xmlns="http://www.w3.org/2000/svg" version="1.1" xmlns:xlink="http://www.w3.org/1999/xlink" xmlns:svgjs="http://svgjs.dev/svgjs" width="128" height="128" viewBox="0 0 128 128"><g transform="matrix(0.8046875,0,0,0.8046875,12.409820085469192,6.756153330592099)"><svg viewBox="0 0 85 95" data-background-color="#ffffff" preserveAspectRatio="xMidYMid meet" height="143" width="128" xmlns="http://www.w3.org/2000/svg" xmlns:xlink="http://www.w3.org/1999/xlink"><g id="tight-bounds" transform="matrix(1,0,0,1,0.07442031781668845,-0.24049999999999727)"><svg viewBox="0 0 84.85115936436664 95.481" height="95.481" width="84.85115936436664"><rect width="84.85115936436664" height="95.481" fill="url(#bc57e9e7-6b17-422b-9fb4-666c5081625c)" mask="url(&quot;#da4c3e9c-8447-41bb-88ff-0f0192afab64&quot;)" data-fill-palette-color="accent"></rect><g><svg viewBox="0 0 84.85115936436664 95.481" height="95.481" width="84.85115936436664"><g><svg viewBox="0 0 84.85115936436664 95.481" height="95.481" width="84.85115936436664"><g id="textblocktransform"><svg viewBox="0 0 84.85115936436664 95.481" height="95.481" width="84.85115936436664" id="textblock"><g><svg viewBox="0 0 84.85115936436664 95.481" height="95.481" width="84.85115936436664"><g><svg viewBox="0 0 84.85115936436664 95.481" height="95.481" width="84.85115936436664"><g><svg xmlns="http://www.w3.org/2000/svg" xmlns:xlink="http://www.w3.org/1999/xlink" version="1.1" x="0" y="0" viewBox="6 1.479 76 85.521" enable-background="new 0 0 90 90" xml:space="preserve" height="95.481" width="84.85115936436664" class="icon-icon-0" data-fill-palette-color="accent" id="icon-0"></svg></g></svg></g></svg></g></svg></g></svg></g></svg></g><defs></defs><mask id="da4c3e9c-8447-41bb-88ff-0f0192afab64"><g id="SvgjsG1591"><svg viewBox="0 0 84.85115936436664 95.481" height="95.481" width="84.85115936436664"><g><svg viewBox="0 0 84.85115936436664 95.481" height="95.481" width="84.85115936436664"><g><svg viewBox="0 0 84.85115936436664 95.481" height="95.481" width="84.85115936436664"><g id="SvgjsG1590"><svg viewBox="0 0 84.85115936436664 95.481" height="95.481" width="84.85115936436664" id="SvgjsSvg1589"><g><svg viewBox="0 0 84.85115936436664 95.481" height="95.481" width="84.85115936436664"><g><svg viewBox="0 0 84.85115936436664 95.481" height="95.481" width="84.85115936436664"><g><svg xmlns="http://www.w3.org/2000/svg" xmlns:xlink="http://www.w3.org/1999/xlink" version="1.1" x="0" y="0" viewBox="6 1.479 76 85.521" enable-background="new 0 0 90 90" xml:space="preserve" height="95.481" width="84.85115936436664" class="icon-icon-0" data-fill-palette-color="accent" id="SvgjsSvg1588"><rect x="6" y="22" width="70" height="6" fill="white"></rect><rect x="6" y="81" width="70" height="6" fill="white"></rect><path d="M11 27v55h62V27H11zM38 30h8v10h-8V30zM38 47h8v9h-8V47zM27 73h-7v-9h7V73zM27 56h-7v-9h7V56zM27 40h-7V30h7V40zM49 81H35V65.836c0 0 6-8.028 14 0V81zM65 73h-7v-9h7V73zM65 56h-7v-9h7V56zM65 40h-7V30h7V40z" fill="white"></path><path d="M82 55.5c0 1.933-1.567 3.5-3.5 3.5l0 0c-1.933 0-3.5-1.567-3.5-3.5v-21c0-1.933 1.567-3.5 3.5-3.5l0 0c1.933 0 3.5 1.567 3.5 3.5V55.5z" fill="white"></path><polygon points="41.304,1.479 17.525,18 65.537,18 " fill="white"></polygon></svg></g></svg></g></svg></g></svg></g></svg></g></svg></g><defs><mask></mask></defs></svg></g></mask><linearGradient x1="0" x2="1" y1="0.5" y2="0.5" id="bc57e9e7-6b17-422b-9fb4-666c5081625c"><stop stop-color="#f00b51" offset="0"></stop><stop stop-color="#730062" offset="1"></stop></linearGradient></svg><rect width="84.85115936436664" height="95.481" fill="none" stroke="none" visibility="hidden"></rect></g></svg></g></svg>