<svg xmlns="http://www.w3.org/2000/svg" version="1.1" xmlns:xlink="http://www.w3.org/1999/xlink" xmlns:svgjs="http://svgjs.dev/svgjs" width="2000" height="373" viewBox="0 0 2000 373"><g transform="matrix(1,0,0,1,-1.2121212121212466,-0.5520862110313942)"><svg viewBox="0 0 396 74" data-background-color="#ffffff" preserveAspectRatio="xMidYMid meet" height="373" width="2000" xmlns="http://www.w3.org/2000/svg" xmlns:xlink="http://www.w3.org/1999/xlink"><g id="tight-bounds" transform="matrix(1,0,0,1,0.2400000000000091,0.10952916787218214)"><svg viewBox="0 0 395.52 73.78094166425564" height="73.78094166425564" width="395.52"><rect width="395.52" height="73.78094166425564" fill="url(#2595442b-3625-4a6b-aaec-b2dd8926e96a)" mask="url(&quot;#6f0ae38d-675a-48a0-ba1d-7b4a9ae5fc1c&quot;)" data-fill-palette-color="accent"></rect><rect width="395.52" height="73.78094166425564" fill="url(#49b8178f-f55d-4b84-ac92-0a461c553c2a)" mask="url(&quot;#a2af4820-aa0a-43d8-9941-7dafbbc5fc31&quot;)" data-fill-palette-color="primary"></rect><g><svg viewBox="0 0 492.9454838128522 91.95484927400466" height="73.78094166425564" width="395.52"><g transform="matrix(1,0,0,1,97.42548381285222,12.708665854800934)"><svg viewBox="0 0 395.52 66.53751756440279" height="66.53751756440279" width="395.52"><g id="textblocktransform"><svg viewBox="0 0 395.52 66.53751756440279" height="66.53751756440279" width="395.52" id="textblock"><g><svg viewBox="0 0 395.52 66.53751756440279" height="66.53751756440279" width="395.52"><g transform="matrix(1,0,0,1,0,0)"><svg width="395.52" viewBox="-0.3 -33.6 256.18 43.1" height="66.53751756440279" data-palette-color="url(#49b8178f-f55d-4b84-ac92-0a461c553c2a)"></svg></g></svg></g></svg></g></svg></g><g><svg viewBox="0 0 81.71757281631827 91.95484927400466" height="91.95484927400466" width="81.71757281631827"><g><svg xmlns="http://www.w3.org/2000/svg" xmlns:xlink="http://www.w3.org/1999/xlink" version="1.1" x="0" y="0" viewBox="6 1.479 76 85.521" enable-background="new 0 0 90 90" xml:space="preserve" height="91.95484927400466" width="81.71757281631827" class="icon-icon-0" data-fill-palette-color="accent" id="icon-0"></svg></g></svg></g></svg></g><defs></defs><mask id="a2af4820-aa0a-43d8-9941-7dafbbc5fc31"><g id="SvgjsG1495"><svg viewBox="0 0 395.52 73.78094166425564" height="73.78094166425564" width="395.52"><g><svg viewBox="0 0 492.9454838128522 91.95484927400466" height="73.78094166425564" width="395.52"><g transform="matrix(1,0,0,1,97.42548381285222,12.708665854800934)"><svg viewBox="0 0 395.52 66.53751756440279" height="66.53751756440279" width="395.52"><g id="SvgjsG1494"><svg viewBox="0 0 395.52 66.53751756440279" height="66.53751756440279" width="395.52" id="SvgjsSvg1493"><g><svg viewBox="0 0 395.52 66.53751756440279" height="66.53751756440279" width="395.52"><g transform="matrix(1,0,0,1,0,0)"><svg width="395.52" viewBox="-0.3 -33.6 256.18 43.1" height="66.53751756440279" data-palette-color="url(#49b8178f-f55d-4b84-ac92-0a461c553c2a)"><path d="M18.7-33.6Q21.5-33.6 23.88-32.93 26.25-32.25 28.7-30.8L28.7-30.8 29.85-31.75Q31.05-32.7 31.83-33.05 32.6-33.4 33.6-33.4L33.6-33.4Q34.8-33.4 35.5-32.88 36.2-32.35 36.2-31.35L36.2-31.35Q36.2-30.95 36.05-30.5L36.05-30.5 33.95-23.6Q33.6-22.4 33.08-21.9 32.55-21.4 31.5-21.4L31.5-21.4Q30.4-21.4 29.58-22.08 28.75-22.75 27-24.85L27-24.85Q25.25-26.85 23.83-27.68 22.4-28.5 20.9-28.5L20.9-28.5Q19.8-28.5 19.05-27.78 18.3-27.05 18.3-26L18.3-26Q18.3-24.8 19.5-23.78 20.7-22.75 23.25-21.2L23.25-21.2Q25.85-19.65 27.55-18.4 29.25-17.15 30.45-15.3 31.65-13.45 31.65-11.05L31.65-11.05Q31.65-9.5 31.15-7.95L31.15-7.95Q29.95-3.95 26.5-1.88 23.05 0.2 18.45 0.2L18.45 0.2Q15 0.2 12.65-0.6 10.3-1.4 7.85-3.3L7.85-3.3 6.05-1.8Q4.8-0.75 4-0.38 3.2 0 2.2 0L2.2 0Q1.05 0 0.38-0.55-0.3-1.1-0.3-2.05L-0.3-2.05Q-0.3-2.55-0.1-3.1L-0.1-3.1 2.35-10.55Q2.75-11.85 3.45-12.4 4.15-12.95 5.25-12.95L5.25-12.95Q6.4-12.95 7.33-12.15 8.25-11.35 9.75-9.25L9.75-9.25Q11.35-6.95 12.73-6.05 14.1-5.15 16-5.15L16-5.15Q17.35-5.15 18.07-5.58 18.8-6 19.1-6.95L19.1-6.95Q19.2-7.2 19.2-7.7L19.2-7.7Q19.2-8.9 18.05-9.9 16.9-10.9 14.5-12.3L14.5-12.3Q11.95-13.85 10.35-15.08 8.75-16.3 7.58-18.15 6.4-20 6.4-22.5L6.4-22.5Q6.4-24.25 6.95-25.95L6.95-25.95Q8-29.4 11.25-31.5 14.5-33.6 18.7-33.6L18.7-33.6ZM56.8-25.8Q57.75-25.8 58.27-25.4 58.8-25 58.8-24.3L58.8-24.3Q58.8-24.1 58.7-23.6L58.7-23.6Q58.05-21.4 55.7-21.4L55.7-21.4 52.8-21.4 49.05-9.05Q48.8-8.3 48.8-7.5L48.8-7.5Q48.8-6.6 49.3-6.25 49.8-5.9 50.7-5.9L50.7-5.9Q51.5-5.9 52.7-6.1L52.7-6.1Q53.3-6.25 53.75-6.25L53.75-6.25Q54.1-6.25 54.27-6.03 54.45-5.8 54.45-5.45L54.45-5.45Q54.5-4.45 52.97-3.03 51.45-1.6 48.85-0.58 46.25 0.45 43.1 0.45L43.1 0.45Q39.7 0.45 37.65-1.1 35.6-2.65 35.6-5.35L35.6-5.35Q35.6-6.6 36-7.75L36-7.75 39.2-17.65Q39.45-18.5 39.45-19L39.45-19Q39.45-20 38.97-20.7 38.5-21.4 37.65-22.15L37.65-22.15Q36.9-22.85 36.6-23.33 36.3-23.8 36.45-24.45L36.45-24.45Q36.65-25.1 37.3-25.45 37.95-25.8 39.35-25.8L39.35-25.8 42.15-25.8 45.3-28.95Q46.95-30.6 48.32-31.25 49.7-31.9 51.9-31.9L51.9-31.9Q55.05-31.9 55.05-29.5L55.05-29.5Q55.05-28.75 54.85-28.1L54.85-28.1 54.15-25.8 56.8-25.8ZM73.8-26.45Q79.55-26.45 83-24.33 86.45-22.2 86.45-17.85L86.45-17.85Q86.45-16.2 85.85-14.1L85.85-14.1 83.8-7.2Q83.75-7 83.75-6.7L83.75-6.7Q83.75-5.9 84.4-5.9L84.4-5.9Q85-5.9 85.42-6.43 85.85-6.95 86-6.95L86-6.95Q86.25-6.95 86.42-6.6 86.6-6.25 86.6-5.8L86.6-5.8Q86.65-4.45 85.57-3.05 84.5-1.65 82.7-0.75 80.9 0.15 78.75 0.15L78.75 0.15Q76.15 0.15 74.3-0.8 72.45-1.75 71.75-3.6L71.75-3.6Q70.25-1.8 68.2-0.83 66.15 0.15 63.8 0.15L63.8 0.15Q61.15 0.15 59.35-0.88 57.55-1.9 56.67-3.53 55.8-5.15 55.8-6.95L55.8-6.95Q55.8-7.75 55.95-8.5L55.95-8.5Q56.75-11.95 59.42-13.7 62.1-15.45 65.8-15.45L65.8-15.45Q69.95-15.45 73.95-14.15L73.95-14.15 75.2-17.45Q75.85-19.55 75.85-20.7L75.85-20.7Q75.8-21.9 75.05-22.5 74.3-23.1 72.75-23.1L72.75-23.1Q73.05-22.3 73.05-21.45L73.05-21.45Q73.05-19.6 71.65-18.25 70.25-16.9 67.65-16.9L67.65-16.9Q65.2-16.9 63.82-17.98 62.45-19.05 62.45-20.65L62.45-20.65Q62.45-23.15 65.25-24.8 68.05-26.45 73.8-26.45L73.8-26.45ZM71-11.3Q69.6-11.3 68.72-10.23 67.85-9.15 67.85-7.9L67.85-7.9Q67.85-7.1 68.22-6.6 68.6-6.1 69.3-6.1L69.3-6.1Q69.95-6.1 70.72-6.63 71.5-7.15 71.85-8.2L71.85-8.2 72.9-11.15Q72.05-11.3 71-11.3L71-11.3ZM114.14-26.45Q116.34-26.45 117.67-24.68 118.99-22.9 118.99-19.85L118.99-19.85Q118.99-17.2 118.04-14.15L118.04-14.15Q116.19-8 112.12-2.55 108.04 2.9 102.77 6.2 97.49 9.5 92.24 9.5L92.24 9.5Q89.64 9.5 87.77 8.6 85.89 7.7 84.92 6.2 83.94 4.7 83.94 3L83.94 3Q83.94 2.25 84.19 1.35L84.19 1.35Q84.64-0.05 85.69-0.8 86.74-1.55 88.19-1.55L88.19-1.55Q90.49-1.55 91.97 0.03 93.44 1.6 93.84 4.35L93.84 4.35Q97.04 4.2 99.74 1.6L99.74 1.6Q97.19 1.15 95.97-0.13 94.74-1.4 94.29-4.1L94.29-4.1 92.29-16.35Q92.14-17.3 91.87-17.68 91.59-18.05 91.14-18.05L91.14-18.05Q90.79-18.05 90.32-17.7 89.84-17.35 89.64-17.35L89.64-17.35Q89.24-17.35 89.24-18.2L89.24-18.2Q89.24-18.9 89.49-19.7L89.49-19.7Q90.39-22.55 92.84-24.53 95.29-26.5 98.54-26.5L98.54-26.5Q101.74-26.5 103.27-24.6 104.79-22.7 105.24-18.75L105.24-18.75 106.74-7.75Q106.89-6.5 107.64-6.5L107.64-6.5Q108.54-6.5 109.74-8.13 110.94-9.75 112.09-12.75L112.09-12.75Q110.59-14.1 109.79-15.85 108.99-17.6 108.99-19.6L108.99-19.6Q108.99-21.15 109.39-22.4L109.39-22.4Q109.99-24.4 111.27-25.43 112.54-26.45 114.14-26.45L114.14-26.45ZM161.29-33.3Q163.14-33.3 164.16-32.5 165.19-31.7 165.19-30.3L165.19-30.3Q165.19-29.6 164.99-28.95L164.99-28.95 163.69-24.3Q163.34-22.95 162.66-22.43 161.99-21.9 160.74-21.9L160.74-21.9Q159.54-21.9 158.86-22.43 158.19-22.95 157.84-24.15L157.84-24.15 157.04-27Q156.79-27.9 156.44-28.2 156.09-28.5 155.09-28.5L155.09-28.5 149.84-28.5 147.34-19.6 149.54-19.6Q149.89-19.6 150.49-20.1L150.49-20.1 152.19-21.6Q152.94-22.25 153.49-22.55 154.04-22.85 154.84-22.85L154.84-22.85Q155.74-22.85 156.31-22.38 156.89-21.9 156.89-21.15L156.89-21.15Q156.89-20.95 156.79-20.55L156.79-20.55 154.74-13.6Q154.44-12.5 153.71-11.98 152.99-11.45 152.14-11.45L152.14-11.45Q150.74-11.45 150.04-12.9L150.04-12.9 149.19-14.65Q148.84-15.4 148.09-15.4L148.09-15.4 146.14-15.4 143.19-4.8 147.59-4.8Q148.54-4.8 149.26-5.18 149.99-5.55 150.84-6.5L150.84-6.5 153.84-9.8Q154.64-10.65 155.36-11.03 156.09-11.4 157.14-11.4L157.14-11.4Q158.24-11.4 158.94-10.9 159.64-10.4 159.64-9.4L159.64-9.4Q159.64-9 159.49-8.45L159.49-8.45 158.04-3.4Q157.49-1.5 156.44-0.75 155.39 0 153.39 0L153.39 0 129.54 0Q128.49 0 127.91-0.35 127.34-0.7 127.34-1.3L127.34-1.3Q127.34-1.6 127.49-1.95L127.49-1.95Q127.69-2.5 128.14-2.8 128.59-3.1 128.69-3.15L128.69-3.15Q129.49-3.65 129.99-4.17 130.49-4.7 130.84-5.9L130.84-5.9 136.99-27.45Q137.19-28.1 137.19-28.65L137.19-28.65Q137.19-29.25 137.01-29.65 136.84-30.05 136.49-30.5L136.49-30.5Q136.04-31.15 136.04-31.55L136.04-31.55Q136.04-31.7 136.14-32.1L136.14-32.1Q136.34-32.75 137.04-33.02 137.74-33.3 139.09-33.3L139.09-33.3 161.29-33.3ZM180.04-26.45Q185.79-26.45 189.24-24.33 192.69-22.2 192.69-17.85L192.69-17.85Q192.69-16.2 192.09-14.1L192.09-14.1 190.04-7.2Q189.99-7 189.99-6.7L189.99-6.7Q189.99-5.9 190.64-5.9L190.64-5.9Q191.24-5.9 191.66-6.43 192.09-6.95 192.24-6.95L192.24-6.95Q192.49-6.95 192.66-6.6 192.84-6.25 192.84-5.8L192.84-5.8Q192.89-4.45 191.81-3.05 190.74-1.65 188.94-0.75 187.14 0.15 184.99 0.15L184.99 0.15Q182.39 0.15 180.54-0.8 178.69-1.75 177.99-3.6L177.99-3.6Q176.49-1.8 174.44-0.83 172.39 0.15 170.04 0.15L170.04 0.15Q167.39 0.15 165.59-0.88 163.79-1.9 162.91-3.53 162.04-5.15 162.04-6.95L162.04-6.95Q162.04-7.75 162.19-8.5L162.19-8.5Q162.99-11.95 165.66-13.7 168.34-15.45 172.04-15.45L172.04-15.45Q176.19-15.45 180.19-14.15L180.19-14.15 181.44-17.45Q182.09-19.55 182.09-20.7L182.09-20.7Q182.04-21.9 181.29-22.5 180.54-23.1 178.99-23.1L178.99-23.1Q179.29-22.3 179.29-21.45L179.29-21.45Q179.29-19.6 177.89-18.25 176.49-16.9 173.89-16.9L173.89-16.9Q171.44-16.9 170.06-17.98 168.69-19.05 168.69-20.65L168.69-20.65Q168.69-23.15 171.49-24.8 174.29-26.45 180.04-26.45L180.04-26.45ZM177.24-11.3Q175.84-11.3 174.96-10.23 174.09-9.15 174.09-7.9L174.09-7.9Q174.09-7.1 174.46-6.6 174.84-6.1 175.54-6.1L175.54-6.1Q176.19-6.1 176.96-6.63 177.74-7.15 178.09-8.2L178.09-8.2 179.14-11.15Q178.29-11.3 177.24-11.3L177.24-11.3ZM211.33-26.9Q215.48-26.9 218.51-26.15 221.53-25.4 223.16-24.05 224.78-22.7 224.78-21L224.78-21Q224.78-19.25 223.41-18.15 222.03-17.05 219.58-17.05L219.58-17.05Q217.08-17.05 215.36-18.3 213.63-19.55 213.63-21.45L213.63-21.45Q213.63-22.1 213.83-22.7L213.83-22.7Q212.93-22.95 212.23-22.95L212.23-22.95Q210.98-22.95 210.16-22.35 209.33-21.75 209.38-20.65L209.38-20.65Q209.38-19.35 210.68-18.45 211.98-17.55 214.88-16.2L214.88-16.2Q217.38-15.1 219.01-14.18 220.63-13.25 221.76-11.85 222.88-10.45 222.88-8.55L222.88-8.55Q222.88-8.15 222.68-7.05L222.68-7.05Q221.88-3.7 218.23-1.75 214.58 0.2 208.63 0.2L208.63 0.2Q201.93 0.2 198.01-1.6 194.08-3.4 194.08-6.55L194.08-6.55Q194.08-8.7 195.38-9.8 196.68-10.9 198.83-10.9L198.83-10.9Q201.33-10.9 203.11-9.35 204.88-7.8 204.88-5.4L204.88-5.4Q204.88-4.75 204.73-4.05L204.73-4.05Q205.93-3.75 207.03-3.75L207.03-3.75Q208.33-3.75 209.18-4.45 210.03-5.15 210.03-6.4L210.03-6.4Q209.98-7.55 208.88-8.38 207.78-9.2 205.38-10.35L205.38-10.35Q203.13-11.4 201.68-12.33 200.23-13.25 199.21-14.65 198.18-16.05 198.18-17.95L198.18-17.95Q198.18-22.05 201.61-24.48 205.03-26.9 211.33-26.9L211.33-26.9ZM251.03-26.45Q253.23-26.45 254.56-24.68 255.88-22.9 255.88-19.85L255.88-19.85Q255.88-17.2 254.93-14.15L254.93-14.15Q253.08-8 249.01-2.55 244.93 2.9 239.66 6.2 234.38 9.5 229.13 9.5L229.13 9.5Q226.53 9.5 224.66 8.6 222.78 7.7 221.81 6.2 220.83 4.7 220.83 3L220.83 3Q220.83 2.25 221.08 1.35L221.08 1.35Q221.53-0.05 222.58-0.8 223.63-1.55 225.08-1.55L225.08-1.55Q227.38-1.55 228.86 0.03 230.33 1.6 230.73 4.35L230.73 4.35Q233.93 4.2 236.63 1.6L236.63 1.6Q234.08 1.15 232.86-0.13 231.63-1.4 231.18-4.1L231.18-4.1 229.18-16.35Q229.03-17.3 228.76-17.68 228.48-18.05 228.03-18.05L228.03-18.05Q227.68-18.05 227.21-17.7 226.73-17.35 226.53-17.35L226.53-17.35Q226.13-17.35 226.13-18.2L226.13-18.2Q226.13-18.9 226.38-19.7L226.38-19.7Q227.28-22.55 229.73-24.53 232.18-26.5 235.43-26.5L235.43-26.5Q238.63-26.5 240.16-24.6 241.68-22.7 242.13-18.75L242.13-18.75 243.63-7.75Q243.78-6.5 244.53-6.5L244.53-6.5Q245.43-6.5 246.63-8.13 247.83-9.75 248.98-12.75L248.98-12.75Q247.48-14.1 246.68-15.85 245.88-17.6 245.88-19.6L245.88-19.6Q245.88-21.15 246.28-22.4L246.28-22.4Q246.88-24.4 248.16-25.43 249.43-26.45 251.03-26.45L251.03-26.45Z" opacity="1" transform="matrix(1,0,0,1,0,0)" fill="white" class="wordmark-text-0" id="SvgjsPath1492"></path></svg></g></svg></g></svg></g></svg></g><g><svg viewBox="0 0 81.71757281631827 91.95484927400466" height="91.95484927400466" width="81.71757281631827"><g><svg xmlns="http://www.w3.org/2000/svg" xmlns:xlink="http://www.w3.org/1999/xlink" version="1.1" x="0" y="0" viewBox="6 1.479 76 85.521" enable-background="new 0 0 90 90" xml:space="preserve" height="91.95484927400466" width="81.71757281631827" class="icon-icon-0" data-fill-palette-color="accent" id="SvgjsSvg1491"></svg></g></svg></g></svg></g><defs><mask></mask></defs></svg></g></mask><linearGradient x1="0" x2="1" y1="0.5" y2="0.5" id="49b8178f-f55d-4b84-ac92-0a461c553c2a"><stop stop-color="#f00b51" offset="0"></stop><stop stop-color="#730062" offset="1"></stop></linearGradient><mask id="6f0ae38d-675a-48a0-ba1d-7b4a9ae5fc1c"><g id="SvgjsG1504"><svg viewBox="0 0 395.52 73.78094166425564" height="73.78094166425564" width="395.52"><g><svg viewBox="0 0 492.9454838128522 91.95484927400466" height="73.78094166425564" width="395.52"><g transform="matrix(1,0,0,1,97.42548381285222,12.708665854800934)"><svg viewBox="0 0 395.52 66.53751756440279" height="66.53751756440279" width="395.52"><g id="SvgjsG1503"><svg viewBox="0 0 395.52 66.53751756440279" height="66.53751756440279" width="395.52" id="SvgjsSvg1502"><g><svg viewBox="0 0 395.52 66.53751756440279" height="66.53751756440279" width="395.52"><g transform="matrix(1,0,0,1,0,0)"><svg width="395.52" viewBox="-0.3 -33.6 256.18 43.1" height="66.53751756440279" data-palette-color="url(#49b8178f-f55d-4b84-ac92-0a461c553c2a)"></svg></g></svg></g></svg></g></svg></g><g><svg viewBox="0 0 81.71757281631827 91.95484927400466" height="91.95484927400466" width="81.71757281631827"><g><svg xmlns="http://www.w3.org/2000/svg" xmlns:xlink="http://www.w3.org/1999/xlink" version="1.1" x="0" y="0" viewBox="6 1.479 76 85.521" enable-background="new 0 0 90 90" xml:space="preserve" height="91.95484927400466" width="81.71757281631827" class="icon-icon-0" data-fill-palette-color="accent" id="SvgjsSvg1501"><rect x="6" y="22" width="70" height="6" fill="white"></rect><rect x="6" y="81" width="70" height="6" fill="white"></rect><path d="M11 27v55h62V27H11zM38 30h8v10h-8V30zM38 47h8v9h-8V47zM27 73h-7v-9h7V73zM27 56h-7v-9h7V56zM27 40h-7V30h7V40zM49 81H35V65.836c0 0 6-8.028 14 0V81zM65 73h-7v-9h7V73zM65 56h-7v-9h7V56zM65 40h-7V30h7V40z" fill="white"></path><path d="M82 55.5c0 1.933-1.567 3.5-3.5 3.5l0 0c-1.933 0-3.5-1.567-3.5-3.5v-21c0-1.933 1.567-3.5 3.5-3.5l0 0c1.933 0 3.5 1.567 3.5 3.5V55.5z" fill="white"></path><polygon points="41.304,1.479 17.525,18 65.537,18 " fill="white"></polygon></svg></g></svg></g></svg></g><defs><mask></mask></defs><mask><g id="SvgjsG1500"><svg viewBox="0 0 395.52 73.78094166425564" height="73.78094166425564" width="395.52"><g><svg viewBox="0 0 492.9454838128522 91.95484927400466" height="73.78094166425564" width="395.52"><g transform="matrix(1,0,0,1,97.42548381285222,12.708665854800934)"><svg viewBox="0 0 395.52 66.53751756440279" height="66.53751756440279" width="395.52"><g id="SvgjsG1499"><svg viewBox="0 0 395.52 66.53751756440279" height="66.53751756440279" width="395.52" id="SvgjsSvg1498"><g><svg viewBox="0 0 395.52 66.53751756440279" height="66.53751756440279" width="395.52"><g transform="matrix(1,0,0,1,0,0)"><svg width="395.52" viewBox="-0.3 -33.6 256.18 43.1" height="66.53751756440279" data-palette-color="url(#49b8178f-f55d-4b84-ac92-0a461c553c2a)"></svg></g></svg></g></svg></g></svg></g><g><svg viewBox="0 0 81.71757281631827 91.95484927400466" height="91.95484927400466" width="81.71757281631827"><g><svg xmlns="http://www.w3.org/2000/svg" xmlns:xlink="http://www.w3.org/1999/xlink" version="1.1" x="0" y="0" viewBox="6 1.479 76 85.521" enable-background="new 0 0 90 90" xml:space="preserve" height="91.95484927400466" width="81.71757281631827" class="icon-icon-0" data-fill-palette-color="accent" id="SvgjsSvg1496"></svg></g></svg></g></svg></g><defs><mask></mask></defs></svg></g></mask></svg></g></mask><linearGradient x1="0" x2="1" y1="0.5" y2="0.5" id="2595442b-3625-4a6b-aaec-b2dd8926e96a"><stop stop-color="#f00b51" offset="0"></stop><stop stop-color="#730062" offset="1"></stop></linearGradient></svg><rect width="395.52" height="73.78094166425564" fill="none" stroke="none" visibility="hidden"></rect></g></svg></g></svg>